<svg xmlns="http://www.w3.org/2000/svg" viewBox="0 0 512 512">
  <rect width="512" height="512" rx="96" fill="#0f1117"/>
  <!-- K線圖蠟燭 -->
  <rect x="100" y="160" width="36" height="120" rx="4" fill="#00d084"/>
  <rect x="118" y="130" width="4" height="30" fill="#00d084"/>
  <rect x="118" y="280" width="4" height="40" fill="#00d084"/>

  <rect x="172" y="200" width="36" height="80" rx="4" fill="#ff4d6d"/>
  <rect x="190" y="170" width="4" height="30" fill="#ff4d6d"/>
  <rect x="190" y="280" width="4" height="50" fill="#ff4d6d"/>

  <rect x="244" y="140" width="36" height="100" rx="4" fill="#00d084"/>
  <rect x="262" y="110" width="4" height="30" fill="#00d084"/>
  <rect x="262" y="240" width="4" height="40" fill="#00d084"/>

  <rect x="316" y="180" width="36" height="90" rx="4" fill="#ff4d6d"/>
  <rect x="334" y="150" width="4" height="30" fill="#ff4d6d"/>
  <rect x="334" y="270" width="4" height="45" fill="#ff4d6d"/>

  <rect x="388" y="120" width="36" height="130" rx="4" fill="#00d084"/>
  <rect x="406" y="90" width="4" height="30" fill="#00d084"/>
  <rect x="406" y="250" width="4" height="40" fill="#00d084"/>

  <!-- 底部文字 -->
  <text x="256" y="400" text-anchor="middle" font-family="sans-serif" font-size="52" font-weight="900" fill="#4f7cff">ETF</text>
  <text x="256" y="450" text-anchor="middle" font-family="sans-serif" font-size="28" fill="#7c85a2">季配息分析</text>
</svg>
